<svg width="24" height="25" viewBox="0 0 24 25" fill="none" xmlns="http://www.w3.org/2000/svg">
<g id="buzz-icon">
<path id="Vector" d="M6.42965 0.152674C5.16249 0.316935 4.08775 0.701775 3.11627 1.35413C2.56717 1.72019 1.64261 2.63067 1.26716 3.17038C0.713362 3.96822 0.28159 4.99603 0.0844771 6.01445C0.00938635 6.3899 0 6.74189 0 9.18234C0 11.8528 0.00469317 11.9419 0.107943 12.4019C0.506863 14.2228 1.50651 15.7716 2.9567 16.8134C3.70761 17.3485 4.80581 17.8272 5.71629 18.0055L5.9838 18.0571V18.3622C5.9838 18.625 6.00257 18.6813 6.10113 18.7799C6.20907 18.8925 6.23723 18.8972 6.85203 18.8972H7.48561V20.399V21.9008H7.29788H7.11016V20.7745V19.6481H6.7347H6.35925V20.7745V21.9008H5.9134C5.5004 21.9008 5.45347 21.9102 5.35022 22.0182C5.23289 22.1308 5.23289 22.1402 5.23289 23.0272C5.23289 23.9142 5.23289 23.9236 5.35022 24.0362L5.46285 24.1536H6.7347H8.00655L8.11919 24.0362C8.23183 23.9283 8.23652 23.9001 8.23652 23.2853V22.6517H11.2402H14.2438V23.2853C14.2438 23.9001 14.2485 23.9283 14.3611 24.0362L14.4737 24.1536H15.7456H17.0174L17.1301 24.0362C17.2474 23.9236 17.2474 23.9142 17.2474 23.0272C17.2474 22.1402 17.2474 22.1308 17.1301 22.0182C17.0268 21.9102 16.9799 21.9008 16.5669 21.9008H16.121V20.7745V19.6481H15.7456H15.3701V20.7745V21.9008H15.1824H14.9947V20.399V18.8972H15.6283C16.2431 18.8972 16.2712 18.8925 16.3792 18.7799C16.4777 18.686 16.4965 18.6203 16.4965 18.4044V18.1463H16.8907C18.6929 18.1463 20.5232 17.4095 21.7294 16.1986C22.2316 15.7012 22.5882 15.1802 22.9449 14.434C24.3763 11.4351 24.3482 6.62925 22.8792 3.69133C21.9828 1.89853 20.4435 0.748707 18.2846 0.255924C17.8341 0.152674 17.8106 0.152674 12.2023 0.143288C9.10476 0.138594 6.50943 0.143288 6.42965 0.152674ZM16.9048 1.34005C15.7268 2.56966 14.8398 4.48447 14.455 6.65272L14.4221 6.82167L14.7553 6.8733C14.9337 6.90615 15.1026 6.92962 15.1308 6.92962C15.1543 6.92962 15.1871 6.84045 15.2059 6.72781C15.3842 5.61083 15.8676 4.22165 16.412 3.25955C16.872 2.43825 17.5572 1.64041 18.1579 1.22741L18.416 1.04907L18.829 1.18048L19.2373 1.30719L18.8666 1.48553C18.6601 1.58879 18.3597 1.77182 18.2048 1.90323C17.9326 2.12381 17.3413 2.80432 17.3413 2.89349C17.3413 2.91695 17.4727 3.0249 17.6323 3.13284L17.9185 3.32995L18.064 3.14692C18.3738 2.74331 18.8196 2.34908 19.1481 2.18482C19.4438 2.03933 19.5142 2.02525 19.8756 2.02525C20.237 2.02525 20.3074 2.03933 20.603 2.18482C21.6121 2.68229 22.4944 4.19819 22.9449 6.22564C23.1655 7.23467 23.2265 7.84009 23.2265 9.13541C23.2265 10.4307 23.1655 11.0361 22.9449 12.0452C22.4944 14.0726 21.6121 15.5885 20.603 16.086C20.3074 16.2315 20.237 16.2456 19.8756 16.2456C19.5142 16.2456 19.4438 16.2315 19.1481 16.086C18.8196 15.9217 18.3738 15.5275 18.064 15.1239L17.9185 14.9409L17.6323 15.138C17.4727 15.2459 17.3413 15.3539 17.3413 15.3773C17.3413 15.4665 17.9326 16.147 18.2048 16.3676C18.3597 16.499 18.6601 16.682 18.8666 16.7853L19.2373 16.9636L18.829 17.0903L18.416 17.2217L18.1579 17.0434C18.0124 16.9448 17.7449 16.7149 17.5572 16.5319C16.1023 15.1098 15.1496 12.5802 15.0135 9.77837L14.9806 9.13541H14.6052H14.2297L14.2626 9.80184C14.3001 10.5903 14.4268 11.5383 14.5958 12.2798C14.8445 13.4015 15.3795 14.7672 15.877 15.5744L16.0741 15.8936H15.2716C14.1687 15.8936 14.2438 15.8044 14.2438 17.1373V18.1463H11.2402H8.23652V17.1373C8.23652 15.795 8.32569 15.8936 7.11016 15.8936C6.22315 15.8936 6.21376 15.8936 6.10113 16.0109C5.99788 16.1095 5.9838 16.1658 5.9838 16.4802V16.8416L5.62242 16.6445C4.35996 15.964 3.32746 14.847 2.76428 13.5564C2.6845 13.3687 2.60471 13.1997 2.58594 13.1856C2.55309 13.1481 1.90074 13.3687 1.90074 13.4156C1.90074 13.5048 2.29496 14.3401 2.48738 14.664C2.90507 15.3492 3.55273 16.086 4.22386 16.6351L4.41158 16.79L4.0596 16.6116C3.32746 16.2409 2.56717 15.5838 2.01337 14.847C1.60507 14.3073 1.15921 13.4297 0.99026 12.8336C0.755601 12.0123 0.727442 11.6322 0.727442 9.17295C0.727442 7.9058 0.750908 6.72781 0.774374 6.50723C0.99026 4.7379 1.95705 3.09999 3.38378 2.09095C3.81086 1.7859 4.53361 1.38229 4.24732 1.60756C3.88595 1.89384 3.0271 2.79962 2.76897 3.17038C2.22926 3.94476 1.82095 4.89747 1.60976 5.89712C1.52059 6.30542 1.5112 6.54947 1.49243 8.67548L1.47366 11.0127H1.84911H2.22926V8.95707C2.22926 7.82601 2.25272 6.72312 2.27619 6.50723C2.63287 3.60216 4.91375 1.3025 7.81883 0.927048C7.98309 0.903582 10.1983 0.884809 12.7373 0.880116L17.3507 0.875422L16.9048 1.34005ZM16.9658 16.9824L17.36 17.3954H16.9283H16.4965V16.9402C16.4965 16.6914 16.5153 16.5037 16.534 16.5272C16.5528 16.5553 16.7499 16.7571 16.9658 16.9824ZM7.48561 17.3954V18.1463H7.11016H6.7347V17.3954V16.6445H7.11016H7.48561V17.3954ZM15.7456 17.3954V18.1463H15.3701H14.9947V17.3954V16.6445H15.3701H15.7456V17.3954ZM14.2438 20.399V21.9008H11.2402H8.23652V20.399V18.8972H11.2402H14.2438V20.399ZM7.48561 23.0272V23.4027H6.7347H5.9838V23.0272V22.6517H6.7347H7.48561V23.0272ZM16.4965 23.0272V23.4027H15.7456H14.9947V23.0272V22.6517H15.7456H16.4965V23.0272Z" fill="black" fill-opacity="0.5"/>
<path id="Vector_2" d="M16.6467 4.21698C16.2618 5.20254 16.0272 6.09425 15.8535 7.21122C15.7362 7.95744 15.7362 10.3228 15.8535 11.0737C16.0178 12.1484 16.3135 13.2373 16.6701 14.1102C16.7593 14.3308 16.8438 14.5185 16.8532 14.5279C16.8626 14.542 17.0221 14.4763 17.2005 14.3918C17.4539 14.2698 17.5243 14.2134 17.5008 14.1571C17.116 13.2795 16.7593 12.0311 16.6091 11.0362C16.4824 10.2289 16.4824 8.04191 16.6091 7.23469C16.7593 6.23973 17.116 4.98666 17.5008 4.11373C17.5243 4.05741 17.4539 4.00109 17.2239 3.88845C17.055 3.80867 16.9001 3.73827 16.8766 3.73827C16.8532 3.73827 16.7499 3.95416 16.6467 4.21698Z" fill="black" fill-opacity="0.5"/>
<path id="Vector_3" d="M7.88436 5.07115C6.4107 5.35274 5.1764 6.41339 4.71647 7.78849C3.83884 10.3932 5.63163 13.073 8.37245 13.2513C10.3201 13.3781 12.0894 12.0827 12.6151 10.1445C12.7512 9.6423 12.7559 8.66142 12.6292 8.17803C12.2209 6.63867 11.1461 5.55454 9.62083 5.13685C9.18906 5.01952 8.32552 4.98667 7.88436 5.07115ZM9.62083 5.91592C10.1512 6.08487 10.5501 6.33361 10.9819 6.76538C11.5967 7.38019 11.9158 8.06539 11.9768 8.89608C12.1176 10.9329 10.4281 12.6318 8.38653 12.4957C7.88436 12.4676 7.31648 12.2939 6.88471 12.0405C6.52334 11.8246 5.90853 11.2004 5.68795 10.825C5.5894 10.656 5.45799 10.351 5.38759 10.1445C5.28434 9.82533 5.26557 9.68454 5.26087 9.18237C5.25618 8.48778 5.32658 8.17333 5.61756 7.58669C5.96016 6.89679 6.71576 6.22567 7.43851 5.96285C8.10963 5.7235 8.9591 5.70473 9.62083 5.91592Z" fill="black" fill-opacity="0.5"/>
<path id="Vector_4" d="M7.96408 6.20218C7.43375 6.31951 6.90342 6.61049 6.49511 7.01879C5.31713 8.20147 5.31713 10.074 6.49511 11.2426C7.67779 12.4206 9.53159 12.4347 10.6955 11.2708C11.2681 10.7029 11.559 10.0694 11.6013 9.30437C11.6341 8.74588 11.5356 8.29064 11.2775 7.77439C10.6767 6.57294 9.29224 5.9159 7.96408 6.20218ZM9.15145 6.95309C9.53629 7.05634 9.92113 7.27222 10.1652 7.52566C10.2966 7.66176 10.3388 7.72746 10.2778 7.70869C10.2262 7.68992 10.0244 7.66176 9.83196 7.64768C9.54098 7.62891 9.43304 7.64298 9.20307 7.72746C8.83701 7.86826 8.50848 8.17331 8.37238 8.50184C8.27382 8.74119 8.25974 8.75527 8.12364 8.72711C7.8749 8.68018 7.58862 8.53938 7.5323 8.42674C7.43375 8.24371 7.50414 7.89172 7.7388 7.41771C7.92184 7.05634 7.98285 6.97186 8.0861 6.94839C8.1565 6.93432 8.23628 6.91554 8.25974 6.90616C8.39115 6.86392 8.9074 6.89208 9.15145 6.95309ZM6.84241 8.74588C7.05829 9.15888 7.49476 9.39823 8.1518 9.46863C8.39115 9.49679 8.63989 9.54372 8.7056 9.57657C8.86986 9.65166 8.95903 9.86286 8.95903 10.1773C8.96372 10.3979 8.94495 10.4636 8.84639 10.5668C8.64459 10.7827 8.24097 10.9188 7.58393 10.9845L7.33519 11.008L7.06299 10.7499C6.4998 10.2148 6.24168 9.39354 6.41063 8.6661C6.43879 8.54877 6.51388 8.32819 6.58428 8.17331L6.711 7.89172L6.73916 8.24371C6.75793 8.44082 6.80017 8.6661 6.84241 8.74588ZM10.137 8.47368C10.5219 8.64732 10.841 9.16827 10.8034 9.56249C10.7424 10.2336 10.0197 11.0643 9.31571 11.2708C9.21246 11.3037 9.22185 11.2802 9.39549 11.1065C9.663 10.8343 9.75687 10.5481 9.72871 10.0787C9.70055 9.60942 9.55975 9.2856 9.26408 9.02278L9.03881 8.82097L9.13268 8.67079C9.30163 8.39389 9.76156 8.30003 10.137 8.47368Z" fill="black" fill-opacity="0.5"/>
<path id="Vector_5" d="M14.3187 7.66649C14.3046 7.71343 14.2906 7.88707 14.2859 8.05603L14.2718 8.36108H14.6472H15.018L15.0415 8.02318L15.0649 7.68057L14.8537 7.65711C14.7364 7.64303 14.5768 7.61956 14.4924 7.60548C14.3797 7.5914 14.3375 7.60079 14.3187 7.66649Z" fill="black" fill-opacity="0.5"/>
<path id="Vector_6" d="M1.83985 11.7636C1.68967 11.7824 1.55826 11.8106 1.54418 11.8246C1.5301 11.8387 1.54418 11.9842 1.57234 12.1438C1.65681 12.6413 1.62396 12.6084 1.98534 12.5286C2.15898 12.4911 2.31855 12.4441 2.33732 12.4254C2.3561 12.4066 2.34671 12.2376 2.31855 12.0546C2.27631 11.7918 2.24346 11.7167 2.18714 11.7214C2.1449 11.7261 1.99003 11.7449 1.83985 11.7636Z" fill="black" fill-opacity="0.5"/>
</g>
</svg>
