<svg width="32" height="33" viewBox="0 0 32 33" fill="none" xmlns="http://www.w3.org/2000/svg">
<g id="community-mode-icon">
<path id="Vector" d="M11.3333 15.4186C12.4379 15.4186 13.3333 14.5231 13.3333 13.4186C13.3333 12.314 12.4379 11.4186 11.3333 11.4186C10.2288 11.4186 9.33334 12.314 9.33334 13.4186C9.33334 14.5231 10.2288 15.4186 11.3333 15.4186Z" fill="url(#paint0_linear_1_67)"/>
<path id="Vector_2" d="M22.6667 13.4186C22.6667 14.5231 21.7712 15.4186 20.6667 15.4186C19.5621 15.4186 18.6667 14.5231 18.6667 13.4186C18.6667 12.314 19.5621 11.4186 20.6667 11.4186C21.7712 11.4186 22.6667 12.314 22.6667 13.4186Z" fill="url(#paint1_linear_1_67)"/>
<path id="Vector_3" fill-rule="evenodd" clip-rule="evenodd" d="M10.9333 18.0853C10.082 18.0853 9.25814 18.8002 9.35555 19.8103C9.41406 20.4171 9.6432 21.8031 10.6064 23.0634C11.6231 24.3937 13.3325 25.4186 16 25.4186C18.6675 25.4186 20.3768 24.3937 21.3936 23.0634C22.3568 21.8031 22.586 20.4171 22.6444 19.8103C22.7419 18.8002 21.918 18.0853 21.0667 18.0853H10.9333ZM12.7252 21.4441C12.5537 21.2198 12.4222 20.9827 12.3215 20.7519H19.6785C19.5779 20.9827 19.4463 21.2198 19.2748 21.4441C18.7975 22.0687 17.8957 22.7519 16 22.7519C14.1043 22.7519 13.2025 22.0687 12.7252 21.4441Z" fill="url(#paint2_linear_1_67)"/>
<path id="Vector_4" fill-rule="evenodd" clip-rule="evenodd" d="M16 31.4186C24.1001 31.4186 30.6667 24.8521 30.6667 16.7519C30.6667 8.65176 24.1001 2.08527 16 2.08527C7.89984 2.08527 1.33334 8.65176 1.33334 16.7519C1.33334 24.8521 7.89984 31.4186 16 31.4186ZM16 28.7429C9.37762 28.7429 4.00912 23.3743 4.00912 16.7519C4.00912 10.1295 9.37762 4.76104 16 4.76104C22.6224 4.76104 27.9909 10.1295 27.9909 16.7519C27.9909 23.3743 22.6224 28.7429 16 28.7429Z" fill="url(#paint3_linear_1_67)"/>
</g>
<defs>
<linearGradient id="paint0_linear_1_67" x1="11.3533" y1="11.4186" x2="11.3533" y2="15.4186" gradientUnits="userSpaceOnUse">
<stop stop-color="#FF6B6B"/>
<stop offset="1" stop-color="#DD506C"/>
</linearGradient>
<linearGradient id="paint1_linear_1_67" x1="20.6867" y1="11.4186" x2="20.6867" y2="15.4186" gradientUnits="userSpaceOnUse">
<stop stop-color="#FF6B6B"/>
<stop offset="1" stop-color="#DD506C"/>
</linearGradient>
<linearGradient id="paint2_linear_1_67" x1="16.0665" y1="18.0853" x2="16.0665" y2="25.4186" gradientUnits="userSpaceOnUse">
<stop stop-color="#FF6B6B"/>
<stop offset="1" stop-color="#DD506C"/>
</linearGradient>
<linearGradient id="paint3_linear_1_67" x1="16.1467" y1="2.08527" x2="16.1467" y2="31.4186" gradientUnits="userSpaceOnUse">
<stop stop-color="#FF6B6B"/>
<stop offset="1" stop-color="#DD506C"/>
</linearGradient>
</defs>
</svg>
