<svg width="34" height="34" viewBox="0 0 34 34" fill="none" xmlns="http://www.w3.org/2000/svg">
<g id="person-feedback-svgrepo-com 1">
<g id="feedback-icon">
<path id="&#240;&#159;&#142;&#168;-Color" d="M15.2292 19.8334C16.9896 19.8334 18.4167 21.2605 18.4167 23.0209V25.1487L18.4055 25.3023C17.9653 28.3145 15.2597 29.7628 10.7197 29.7628C6.19599 29.7628 3.44722 28.331 2.85386 25.3535L2.83337 25.1459V23.0209C2.83337 21.2605 4.26047 19.8334 6.02087 19.8334H15.2292ZM10.625 8.50004C13.3635 8.50004 15.5834 10.72 15.5834 13.4584C15.5834 16.1968 13.3635 18.4167 10.625 18.4167C7.88663 18.4167 5.66671 16.1968 5.66671 13.4584C5.66671 10.72 7.88663 8.50004 10.625 8.50004ZM27.9792 2.83337C29.7396 2.83337 31.1667 4.26047 31.1667 6.02087V10.9792C31.1667 12.7396 29.7396 14.1667 27.9792 14.1667H25.7794L22.1787 17.2934C21.5879 17.8063 20.6931 17.7431 20.1802 17.1523C19.9565 16.8946 19.8334 16.5648 19.8334 16.2241L19.8324 14.1471C18.2392 13.9705 17 12.6196 17 10.9792V6.02087C17 4.26047 18.4271 2.83337 20.1875 2.83337H27.9792Z" fill="#DD506C"/>
</g>
</g>
</svg>
