<svg width="24" height="25" viewBox="0 0 24 25" fill="none" xmlns="http://www.w3.org/2000/svg">
<path id="home-icon" d="M6.50629 0.147461H17.4937C17.7648 2.44346 19.3748 4.14746 21.2727 4.14746C21.6351 4.14746 21.9956 4.08441 22.3435 3.96021C22.1424 6.33927 20.5023 8.14746 18.5455 8.14746H5.45455C3.49769 8.14746 1.8576 6.33927 1.65657 3.96022C2.00439 4.08441 2.36491 4.14746 2.72727 4.14746C4.62529 4.14746 6.23515 2.44346 6.50629 0.147461ZM23.9767 10.9627C23.5006 11.2929 22.9501 11.4815 22.3636 11.4815C21.1523 11.4815 20.0947 10.6771 19.5287 9.48146H4.47125C3.90539 10.6771 2.84773 11.4815 1.63636 11.4815C1.04986 11.4815 0.499396 11.2929 0.0233236 10.9627C0.00790903 11.1329 0 11.3061 0 11.4815C0 13.3431 0.891851 14.95 2.18182 15.6991V24.1475H8.72727V21.4808C8.72727 19.2716 10.1926 17.4808 12 17.4808C13.8075 17.4808 15.2727 19.2716 15.2727 21.4808V24.1475H21.8182V15.6991C23.1082 14.95 24 13.3431 24 11.4815C24 11.3061 23.992 11.1329 23.9767 10.9627Z" fill="url(#paint0_linear_21_259)"/>
<defs>
<linearGradient id="paint0_linear_21_259" x1="12.12" y1="0.147461" x2="12.12" y2="24.1475" gradientUnits="userSpaceOnUse">
<stop offset="1" stop-color="#DD506C"/>
</linearGradient>
</defs>
</svg>
