<svg width="26" height="26" viewBox="0 0 26 26" fill="none" xmlns="http://www.w3.org/2000/svg">
<path id="library-icon" d="M13 25.1475C19.6274 25.1475 25 19.7749 25 13.1475C25 6.52004 19.6274 1.14746 13 1.14746M13 25.1475C6.37258 25.1475 1 19.7749 1 13.1475C1 6.52004 6.37258 1.14746 13 1.14746M13 25.1475C15.7904 25.1475 18.0526 19.7749 18.0526 13.1475C18.0526 6.52004 15.7904 1.14746 13 1.14746M13 25.1475C10.2095 25.1475 7.94737 19.7749 7.94737 13.1475C7.94737 6.52004 10.2095 1.14746 13 1.14746M1.63158 9.35799H24.3684M1.63158 16.9369H24.3684" stroke="black" stroke-opacity="0.45" stroke-linecap="round"/>
</svg>
