<svg width="24" height="25" viewBox="0 0 24 25" fill="none" xmlns="http://www.w3.org/2000/svg">
<g id="library-icon">
<path id="Vector" d="M1.1529 0.17857C0.721734 0.328924 0.337434 0.748661 0.149971 1.28116C0.0609256 1.51922 0.0281195 1.73223 0.0140598 2.17076C-0.00937317 2.81602 0.0468658 3.02903 0.262449 3.1042C0.374927 3.14179 0.379613 3.16685 0.379613 3.58032C0.379613 3.96247 0.365554 4.04391 0.243702 4.24439C0.168717 4.36968 0.0843585 4.57015 0.056239 4.68918C-0.0187463 4.98989 -0.0187463 19.3111 0.056239 19.6118C0.0843585 19.7308 0.168717 19.9313 0.243702 20.0566C0.365554 20.2571 0.379613 20.3385 0.379613 20.7206C0.379613 21.1341 0.374927 21.1592 0.262449 21.1968C0.0468658 21.2719 -0.00937317 21.4849 0.0140598 22.1302C0.0515524 23.0323 0.281195 23.5523 0.810779 23.9345C1.0826 24.1287 1.13884 24.1475 1.50439 24.1475C1.86995 24.1475 1.92619 24.1287 2.19801 23.9345C2.72759 23.5523 2.95723 23.0261 2.99473 22.1302C3.01816 21.4849 2.96192 21.2719 2.74634 21.1968C2.63386 21.1592 2.62917 21.1341 2.62917 20.7206C2.62917 20.3573 2.64792 20.2508 2.73228 20.1067C2.7932 20.0127 2.8635 19.8874 2.88694 19.8311C2.92912 19.7371 2.99473 19.7371 3.73052 19.8812C5.18805 20.1694 6.84241 20.3886 8.86233 20.5578C10.2636 20.6768 14.1019 20.658 15.5876 20.5202C17.406 20.3573 20.1617 19.9626 20.9397 19.7559C21.0662 19.7246 21.0943 19.7371 21.1599 19.9C21.1974 20.0002 21.263 20.1192 21.3005 20.1631C21.3568 20.2257 21.3755 20.3636 21.3755 20.7019C21.3755 21.1341 21.3708 21.1592 21.2583 21.1968C21.0428 21.2719 20.9865 21.4849 21.01 22.1302C21.0475 23.0323 21.2771 23.5523 21.8067 23.9345C22.0785 24.1287 22.1347 24.1475 22.5003 24.1475C22.8658 24.1475 22.9221 24.1287 23.1939 23.9345C23.7235 23.5523 23.9531 23.0261 23.9906 22.1302C24.0141 21.4849 23.9578 21.2719 23.7422 21.1968C23.6298 21.1592 23.6251 21.1341 23.6251 20.7019C23.6251 20.3573 23.6438 20.2257 23.7047 20.1631C23.7469 20.113 23.8313 19.9313 23.8875 19.7621L24 19.4489V12.1755C24 6.95702 23.9859 4.83954 23.9484 4.68918C23.9203 4.57015 23.836 4.36968 23.761 4.24439C23.6391 4.04391 23.6251 3.96247 23.6251 3.58032C23.6251 3.16685 23.6298 3.14179 23.7422 3.1042C23.9578 3.02903 24.0141 2.81602 23.9906 2.16449C23.9719 1.65705 23.9484 1.53175 23.8125 1.19346C23.6438 0.767456 23.4423 0.516867 23.1095 0.2976C22.9408 0.191099 22.8143 0.159777 22.5003 0.159777C22.0316 0.159777 21.7504 0.310129 21.4458 0.717339C21.1506 1.11202 21.0334 1.49417 21.01 2.17076C20.9865 2.81602 21.0428 3.02903 21.2583 3.1042C21.3708 3.14179 21.3755 3.16685 21.3755 3.59912C21.3755 3.93741 21.3568 4.07524 21.3005 4.13789C21.263 4.18174 21.188 4.31956 21.1412 4.45112C21.0381 4.70798 21.099 4.68918 20.0867 4.87712C17.4482 5.38457 15.0346 5.59757 12.0023 5.59757C8.9795 5.59757 6.55185 5.3783 3.91798 4.87712C2.90568 4.68918 2.96661 4.70798 2.8635 4.45112C2.81664 4.31956 2.74165 4.18174 2.70416 4.13789C2.64792 4.07524 2.62917 3.93741 2.62917 3.59912C2.62917 3.16685 2.63386 3.14179 2.74634 3.1042C2.96192 3.02903 3.01816 2.81602 2.99473 2.16449C2.97598 1.65705 2.95255 1.53175 2.81664 1.19346C2.55888 0.548189 2.14646 0.197365 1.60281 0.153511C1.43409 0.140982 1.23257 0.147247 1.1529 0.17857ZM1.91681 1.29369C2.09022 1.46284 2.20269 1.68837 2.2355 1.92017L2.26831 2.1269H1.50908C0.688928 2.1269 0.702988 2.13317 0.806093 1.76981C0.871705 1.53802 1.02636 1.31875 1.19977 1.21225C1.38723 1.09322 1.75747 1.13708 1.91681 1.29369ZM22.9127 1.29369C23.0861 1.46284 23.1986 1.68837 23.2314 1.92017L23.2642 2.1269H22.505C21.6848 2.1269 21.6989 2.13317 21.802 1.76981C21.8676 1.53802 22.0223 1.31875 22.1957 1.21225C22.3831 1.09322 22.7534 1.13708 22.9127 1.29369ZM1.87932 3.37985V3.63044H1.50439H1.12947V3.37985V3.12926H1.50439H1.87932V3.37985ZM22.8752 3.37985V3.63044H22.5003H22.1254V3.37985V3.12926H22.5003H22.8752V3.37985ZM2.13708 4.78942L2.25425 4.93977V12.1505V19.3612L2.13708 19.5116C2.02929 19.6619 1.9918 19.6682 1.50439 19.6682C1.01699 19.6682 0.979496 19.6619 0.871705 19.5116L0.75454 19.3612V12.1505V4.93977L0.871705 4.78942C0.979496 4.63906 1.01699 4.6328 1.50439 4.6328C1.9918 4.6328 2.02929 4.63906 2.13708 4.78942ZM23.133 4.78942L23.2501 4.93977V12.1505V19.3612L23.133 19.5116C23.0252 19.6619 22.9877 19.6682 22.5003 19.6682C22.0129 19.6682 21.9754 19.6619 21.8676 19.5116L21.7504 19.3612V12.1505V4.93977L21.8676 4.78942C21.9754 4.63906 22.0129 4.6328 22.5003 4.6328C22.9877 4.6328 23.0252 4.63906 23.133 4.78942ZM5.35208 6.13007C7.7563 6.48716 9.33099 6.59993 12.0023 6.59993C15.1142 6.59993 17.406 6.39319 20.2601 5.86069L21.0006 5.72286V5.95466C21.0006 6.23657 21.1271 6.19898 19.1775 6.54981C18.8354 6.61246 18.676 6.91943 18.8026 7.28278C18.901 7.57723 19.0088 7.58976 19.9602 7.42061C20.4429 7.3329 20.874 7.25146 20.9209 7.23893C20.9959 7.21387 21.0006 7.48326 21.0006 12.2194V17.2249L20.8975 17.2562C20.5272 17.369 18.1418 17.7449 16.9233 17.8765C14.5706 18.1396 10.9854 18.221 8.9092 18.0519C6.9174 17.889 3.88518 17.4755 3.11189 17.25L3.0041 17.2249V12.2257V7.2264L3.74458 7.36423C7.88284 8.14105 12.2226 8.329 16.3609 7.92179C17.6778 7.79023 17.7668 7.77143 17.8934 7.60229C18.0105 7.44567 18.034 7.17002 17.9402 7.00714C17.809 6.77534 17.7293 6.76908 16.5718 6.88811C12.4288 7.32664 8.04218 7.15122 3.94142 6.38693C2.9338 6.19898 3.0041 6.23031 3.0041 5.95466V5.72286L3.74458 5.86069C4.157 5.93587 4.87873 6.0549 5.35208 6.13007ZM4.62097 18.5343C9.56063 19.3675 14.6409 19.3612 19.6087 18.5029C20.1148 18.4152 20.6397 18.3213 20.7663 18.2962L21.0006 18.2461V18.4841C21.0006 18.7723 21.0803 18.741 19.9227 18.9477C14.5659 19.9 9.46221 19.9 4.08202 18.9415C2.92443 18.741 3.0041 18.7723 3.0041 18.4841V18.2461L3.43995 18.3275C3.67428 18.3714 4.20855 18.4653 4.62097 18.5343ZM1.87932 20.9211V21.1717H1.50439H1.12947V20.9211V20.6705H1.50439H1.87932V20.9211ZM22.8752 20.9211V21.1717H22.5003H22.1254V20.9211V20.6705H22.5003H22.8752V20.9211ZM2.2355 22.3745C2.20269 22.6189 2.09022 22.8381 1.90744 23.0135C1.72466 23.1952 1.28412 23.1952 1.10135 23.0135C0.918571 22.8381 0.806093 22.6189 0.773286 22.3745L0.745167 22.1741H1.50439H2.26831L2.2355 22.3745ZM23.2314 22.3745C23.1986 22.6189 23.0861 22.8381 22.9033 23.0135C22.7206 23.1952 22.28 23.1952 22.0972 23.0135C21.9145 22.8381 21.802 22.6189 21.7692 22.3745L21.7411 22.1741H22.5003H23.2642L23.2314 22.3745Z" fill="black" fill-opacity="0.5"/>
</g>
</svg>
