<svg width="42" height="43" viewBox="0 0 42 43" fill="none" xmlns="http://www.w3.org/2000/svg">
<g id="mic-icon">
<rect y="0.751923" width="42" height="42" rx="20" fill="#F3F3F3"/>
<path id="Vector" d="M21 29.4082C16.6508 29.4082 13.125 25.7518 13.125 21.2415M21 29.4082C25.3492 29.4082 28.875 25.7518 28.875 21.2415M21 29.4082V32.9082M21 32.9082H16.5M21 32.9082H25.5M21 25.9082C18.5147 25.9082 16.5 23.8188 16.5 21.2415V16.5748C16.5 13.9975 18.5147 11.9082 21 11.9082C23.4852 11.9082 25.5 13.9975 25.5 16.5748V21.2415C25.5 23.8188 23.4852 25.9082 21 25.9082Z" stroke="url(#paint0_linear_1_80)" stroke-width="2" stroke-linecap="round"/>
</g>
<defs>
<linearGradient id="paint0_linear_1_80" x1="21.0787" y1="11.9082" x2="21.0788" y2="32.9082" gradientUnits="userSpaceOnUse">
<stop stop-color="#FF6B6B"/>
<stop offset="1" stop-color="#DD506C"/>
</linearGradient>
</defs>
</svg>
