<svg width="43" height="43" viewBox="0 0 43 43" fill="none" xmlns="http://www.w3.org/2000/svg">
<g id="mic-icon-box">
<rect x="0.5" y="0.790039" width="42" height="42" rx="20" fill="url(#paint0_linear_21_162)"/>
<path id="Vector" d="M21.5 29.4463C17.1508 29.4463 13.625 25.79 13.625 21.2796M21.5 29.4463C25.8492 29.4463 29.375 25.79 29.375 21.2796M21.5 29.4463V32.9463M21.5 32.9463H17M21.5 32.9463H26M21.5 25.9463C19.0147 25.9463 17 23.8569 17 21.2796V16.613C17 14.0356 19.0147 11.9463 21.5 11.9463C23.9852 11.9463 26 14.0356 26 16.613V21.2796C26 23.8569 23.9852 25.9463 21.5 25.9463Z" stroke="white" stroke-width="2" stroke-linecap="round"/>
</g>
<defs>
<linearGradient id="paint0_linear_21_162" x1="21.71" y1="0.790039" x2="21.71" y2="42.79" gradientUnits="userSpaceOnUse">
<stop offset="1" stop-color="#DD506C"/>
</linearGradient>
</defs>
</svg>
