<svg width="24" height="24" viewBox="0 0 24 24" fill="none" xmlns="http://www.w3.org/2000/svg">
<g clip-path="url(#clip0_36_115)">
<path d="M6.44531 0.028124C5.17969 0.192187 4.10625 0.576562 3.13594 1.22812C2.55 1.61719 1.61719 2.55 1.22813 3.13594C0.684375 3.94687 0.290625 4.9125 0.1125 5.88281C0.0328125 6.30469 0.0234375 6.61406 0.0234375 9.02344C0.0234375 11.9719 0.0328125 12.0703 0.332813 13.0172C0.670313 14.0719 1.21406 14.9859 1.98281 15.7828C3.075 16.9172 4.25625 17.5547 5.87344 17.8828C5.99531 17.9062 6 17.9156 6 18.2156C6 18.4781 6.01406 18.5344 6.11719 18.6328C6.21094 18.7312 6.27656 18.75 6.49219 18.75H6.75V19.125V19.5H6.5625H6.375V20.625V21.75H5.92969C5.51719 21.75 5.47031 21.7594 5.36719 21.8672C5.25 21.9797 5.25 21.9891 5.25 22.875C5.25 23.7609 5.25 23.7703 5.36719 23.8828L5.47969 24H6.75H8.02031L8.13281 23.8828C8.24531 23.775 8.25 23.7469 8.25 23.1328V22.5H11.25H14.25V23.1328C14.25 23.7469 14.2547 23.775 14.3672 23.8828L14.4797 24H15.75H17.0203L17.1328 23.8828C17.25 23.7703 17.25 23.7609 17.25 22.875C17.25 21.9891 17.25 21.9797 17.1328 21.8672C17.0297 21.7594 16.9828 21.75 16.5703 21.75H16.125V20.625V19.5H15.9375H15.75V19.125V18.75H16.0078C16.3734 18.75 16.5 18.6234 16.5 18.2578V18H16.8938C18.9375 18 21.0188 17.0437 22.1438 15.5906C23.0484 14.4187 23.6203 12.8672 23.8922 10.8422C24 10.0078 24 7.99219 23.8922 7.15781C23.5688 4.73906 22.7484 2.84531 21.5531 1.75781C20.7141 0.993749 19.5609 0.421874 18.2859 0.131249C17.8359 0.028124 17.8125 0.028124 12.2109 0.018749C9.11719 0.0140615 6.525 0.018749 6.44531 0.028124ZM18.7922 1.05469C19.0031 1.12031 19.1719 1.19062 19.1672 1.20937C19.1672 1.22812 18.9703 1.33594 18.7359 1.44844C18.3703 1.62656 18.2438 1.72031 17.8828 2.08125C17.6531 2.31562 17.4234 2.57344 17.3813 2.65312L17.2969 2.80312L17.6109 3L17.925 3.19687L18.0656 3.01406C18.375 2.61562 18.8203 2.22187 19.1484 2.05781C19.4438 1.9125 19.5141 1.89844 19.875 1.89844C20.2359 1.89844 20.3063 1.9125 20.6016 2.05781C21.8063 2.64844 22.7813 4.63594 23.1422 7.21875C23.2547 8.03906 23.2547 9.96094 23.1422 10.7812C22.7813 13.3641 21.8063 15.3516 20.6016 15.9422C20.3063 16.0875 20.2359 16.1016 19.875 16.1016C19.5141 16.1016 19.4438 16.0875 19.1484 15.9422C18.8203 15.7781 18.375 15.3844 18.0656 14.9859L17.925 14.8031L17.6109 15L17.2922 15.2016L17.3719 15.3234C17.5406 15.5812 17.5875 15.6422 17.85 15.9094C18.1594 16.2281 18.5531 16.5047 18.9281 16.6734L19.1953 16.7953L18.8719 16.9031C18.6891 16.9641 18.4969 17.0156 18.4406 17.0156C18.3797 17.0156 18.1781 16.8937 17.9906 16.7437C16.9969 15.9516 16.1953 14.6953 15.6609 13.0922C15.2953 11.9953 15.0984 10.9125 15.0234 9.54844L14.9906 9H14.8078H14.625V8.62031V8.24062L14.8266 8.25937L15.0234 8.27344L15.0563 7.92187C15.0703 7.72969 15.075 7.55625 15.0656 7.5375C15.0516 7.51406 14.9672 7.5 14.8781 7.5C14.7 7.5 14.6906 7.47187 14.7469 7.00312L14.775 6.76406L14.9766 6.7875C15.1734 6.80625 15.1781 6.80625 15.2109 6.65156C15.6609 4.425 16.3641 2.8875 17.4375 1.7625C17.7188 1.46719 18.3375 0.937499 18.4031 0.937499C18.4125 0.937499 18.5859 0.989062 18.7922 1.05469ZM4.21875 1.53281C4.12969 1.59844 3.82031 1.88906 3.53438 2.175C2.56875 3.14062 1.95938 4.27031 1.63125 5.68594C1.5375 6.08906 1.52813 6.27656 1.51406 8.49375L1.49531 10.875H1.67813H1.86094L1.89375 11.1187C1.95 11.5969 1.94063 11.625 1.7625 11.625C1.67344 11.625 1.58438 11.6484 1.56563 11.6766C1.53281 11.7328 1.63594 12.4687 1.68281 12.4687C1.69688 12.4687 1.79063 12.45 1.88438 12.4266L2.0625 12.3844L2.10938 12.5812C2.1375 12.6844 2.17969 12.8344 2.20313 12.9094C2.26875 13.1062 2.26875 13.1109 2.08594 13.1719C1.99688 13.2 1.92188 13.2562 1.92188 13.2937C1.92188 13.3875 2.19375 13.9828 2.42813 14.4C2.80781 15.0844 3.45 15.8531 4.07813 16.3781L4.28906 16.5562L4.07813 16.4531C3.38906 16.1062 2.34844 15.1734 1.88906 14.4844C1.37344 13.7156 1.03125 12.8766 0.8625 11.9766C0.782813 11.5547 0.773438 11.2547 0.773438 8.95312C0.773438 6.4875 0.778125 6.38437 0.88125 5.925C1.09219 4.95469 1.43906 4.15312 1.96875 3.4125C2.28281 2.97187 3.01875 2.22656 3.39844 1.96875C3.99375 1.56094 4.62656 1.22344 4.21875 1.53281ZM9.49219 5.74219C11.1797 6.19219 12.2625 7.9125 11.9344 9.61875C11.7984 10.3266 11.4516 10.9594 10.9406 11.4375C9.39375 12.8906 6.97031 12.6047 5.80781 10.8375C4.50469 8.85 5.62031 6.1875 7.96875 5.69062C8.34375 5.61094 9.10313 5.63437 9.49219 5.74219ZM13.2188 19.2375C13.4484 19.3594 13.6313 19.5375 13.7484 19.7578C13.8422 19.9266 13.8516 20.0297 13.8656 20.8453L13.8844 21.75H11.25H8.61563L8.63438 20.8453C8.64844 20.0766 8.6625 19.9219 8.7375 19.7812C8.90156 19.4719 9.14531 19.2703 9.46875 19.1672C9.53438 19.1484 10.3688 19.1344 11.3203 19.1391C12.9141 19.1484 13.0688 19.1578 13.2188 19.2375ZM7.39219 20.025C7.4625 20.1047 7.47656 20.2031 7.47656 20.625C7.47656 21.1594 7.42969 21.2859 7.21406 21.3422C7.12969 21.3656 7.125 21.3328 7.125 20.625C7.125 19.9172 7.12969 19.8844 7.21406 19.9078C7.26563 19.9219 7.34531 19.9734 7.39219 20.025ZM15.375 20.6203C15.375 21.3328 15.3703 21.3656 15.2859 21.3422C15.0797 21.2906 15.0234 21.1547 15.0094 20.6766C14.9953 20.1844 15.0422 20.0344 15.2344 19.9359C15.3 19.9031 15.3563 19.875 15.3656 19.875C15.3703 19.875 15.375 20.2125 15.375 20.6203Z" fill="#DD506C"/>
<path d="M16.6875 3.97036C16.3265 4.83755 16.0219 5.9438 15.8625 6.96099C15.7359 7.76724 15.7359 10.2235 15.8578 11.0157C16.0265 12.0797 16.2422 12.886 16.6265 13.8844L16.8422 14.4329L16.9875 14.3625C17.4797 14.1188 17.5312 14.086 17.5031 14.0157C17.1187 13.1391 16.7625 11.8922 16.6125 10.8985C16.4859 10.0922 16.4859 7.90786 16.6125 7.10161C16.7625 6.10786 17.1187 4.8563 17.5031 3.98442C17.5265 3.92817 17.4562 3.87192 17.2265 3.75942C17.0578 3.67974 16.9031 3.60942 16.8797 3.60942C16.8562 3.60942 16.7672 3.77349 16.6875 3.97036Z" fill="#DD506C"/>
<path d="M19.8938 7.61246C19.6359 7.73433 19.4156 7.96402 19.2563 8.29683C19.1719 8.47027 19.1531 8.58746 19.1484 8.97652C19.1484 9.38433 19.1625 9.47808 19.2703 9.70308C19.4531 10.0875 19.6172 10.2656 19.7953 10.2609C20.0203 10.2609 20.3484 10.1156 20.4516 9.97496C20.5172 9.8859 20.5453 9.78277 20.5406 9.59527C20.5406 9.31402 20.4797 9.15933 20.3297 9.04215C20.2031 8.93902 20.2547 8.65777 20.4422 8.47027C20.5641 8.3484 20.6063 8.33433 20.7703 8.35777C21.0047 8.39058 21.1219 8.48902 21.2672 8.78902L21.3797 9.0234L21.3469 8.78902C21.2672 8.19371 20.9156 7.67808 20.5031 7.55621C20.2359 7.47652 20.1703 7.4859 19.8938 7.61246Z" fill="#DD506C"/>
<path d="M7.96875 6.075C6.87188 6.30937 5.925 7.26562 5.69532 8.36718C5.25 10.4953 7.12969 12.375 9.25782 11.9297C10.3594 11.7 11.325 10.7344 11.5547 9.63281C12 7.49531 10.1063 5.61562 7.96875 6.075ZM10.0547 8.30156C10.3219 8.37656 10.6406 8.71875 10.7531 9.05625C10.8328 9.28593 10.8375 9.35156 10.7859 9.57187C10.6453 10.2234 9.96094 10.95 9.32813 11.1328C9.22032 11.1656 9.225 11.1516 9.37969 10.9875C9.7125 10.6312 9.81094 10.2422 9.70782 9.69375C9.6375 9.33281 9.48282 9.06093 9.23438 8.85L9.04688 8.69531L9.13594 8.55C9.29532 8.28281 9.64688 8.18906 10.0547 8.30156Z" fill="#DD506C"/>
</g>
<defs>
<clipPath id="clip0_36_115">
<rect width="24" height="24" fill="white"/>
</clipPath>
</defs>
</svg>
