<svg width="19" height="25" viewBox="0 0 19 25" fill="none" xmlns="http://www.w3.org/2000/svg">
<path d="M13.0293 2.94606L11.9693 1.35596H10.3792L8.78906 4.00612L11.9693 7.18633L13.0293 2.94606Z" fill="white"/>
<path d="M3.63486 3.40823L5.41586 1.90357L17.2902 14.2054L17.402 17.4015L16.4083 20.378L13.9983 23.0775L9.97747 23.9366L6.03749 23.2046L3.28485 21.4694L1.15284 18.7024L1.23372 17.1113L3.32217 16.6857L5.69848 18.6969L5.88346 18.4111L2.50195 14.5171L2.58283 12.926L4.33687 11.9517L8.6764 16.0008L8.68669 15.7983L3.85106 10.3318L3.9589 8.21032L6.25269 7.7952L12.0046 13.2605L12.0356 13.2279L4.12068 5.02814L3.63486 3.40823Z" fill="white"/>
<path d="M10.489 0.833317C10.0321 1.00463 9.77834 1.1696 9.47378 1.49955C9.15653 1.84218 9.01693 2.11502 8.71872 2.95256C8.59816 3.30788 8.48395 3.61245 8.47126 3.62514C8.45857 3.63783 8.04614 3.25712 7.55757 2.78125C6.40278 1.65183 6.12994 1.50589 5.14646 1.50589C4.55637 1.50589 4.43581 1.52493 4.11856 1.67721C3.09066 2.15309 2.4625 3.33961 2.6592 4.40558C2.77975 5.04643 3.00183 5.40809 3.75689 6.19488L4.4485 6.91187L4.04242 7.11491C3.54116 7.36237 3.1097 7.81287 2.8432 8.37757C2.66554 8.75828 2.64651 8.8598 2.64651 9.37375C2.65285 10.0844 2.79879 10.4905 3.2366 11.0235L3.55385 11.4042L3.22391 11.5628C2.74168 11.7976 2.50057 11.9943 2.22139 12.3876C1.51709 13.3584 1.58054 14.6719 2.36733 15.5284C2.54499 15.7251 2.67823 15.8901 2.66554 15.8965C2.65285 15.9028 2.47519 15.9853 2.2785 16.0805C1.31405 16.5373 0.77472 17.47 0.85086 18.5487C0.907966 19.437 1.02852 19.6083 2.87493 21.4357C4.56271 23.1044 4.98783 23.4471 6.00938 23.9356C7.2086 24.513 8.1667 24.7224 9.58799 24.7224C11.0664 24.7224 12.0372 24.5003 13.2998 23.8658C15.197 22.9204 16.7515 21.1248 17.4178 19.1134C17.7223 18.1934 17.8048 17.635 17.8048 16.5119C17.8048 15.3508 17.7414 14.9193 17.4241 13.9358C16.9102 12.3559 16.4279 11.6833 14.1945 9.42451L12.4242 7.62886L13.0651 5.87128C13.8963 3.56169 13.8582 3.70128 13.8265 3.0985C13.7757 2.13405 13.2554 1.35361 12.3925 0.947527C12.0308 0.776211 11.8849 0.744486 11.3963 0.725451C10.9585 0.712761 10.7491 0.738142 10.489 0.833317ZM11.8278 2.0706C12.0752 2.17847 12.4115 2.5211 12.5004 2.76221C12.6526 3.1556 12.5828 3.47286 12.0245 5.0147C11.7263 5.83956 11.4661 6.53751 11.4407 6.56289C11.4154 6.58827 10.9522 6.17585 10.4192 5.63652L9.4484 4.66572L9.81007 3.65686C10.2035 2.56551 10.3557 2.29902 10.7174 2.10867C10.9966 1.96273 11.5296 1.9437 11.8278 2.0706ZM5.6731 2.83201C5.97131 2.95891 15.0193 12.0577 15.362 12.5717C16.8087 14.7417 16.9546 17.5398 15.7427 19.7987C13.8011 23.409 9.1946 24.5765 5.76193 22.3303C4.97514 21.8227 2.34829 19.2339 2.18966 18.8152C1.80262 17.8063 2.79244 16.7975 3.80131 17.1782C4.02338 17.267 4.31526 17.5018 4.96245 18.1426C5.76193 18.9167 5.85076 18.9865 6.06649 18.9865C6.40912 18.9865 6.66927 18.7073 6.66927 18.3456C6.66927 18.0728 6.66292 18.0665 4.92438 16.3216C3.77593 15.1731 3.15411 14.4942 3.08432 14.3419C2.8432 13.7518 3.12239 13.0348 3.71882 12.7176C3.94724 12.597 4.54368 12.5907 4.76575 12.6986C4.85458 12.743 5.69848 13.5488 6.63754 14.4879C7.58295 15.4206 8.43319 16.2201 8.54106 16.2581C9.03597 16.4485 9.56895 15.8901 9.33419 15.4269C9.28977 15.3444 8.07787 14.0881 6.63754 12.6414C4.28988 10.2811 4.00435 9.97653 3.9409 9.72907C3.72517 8.91056 4.31526 8.13646 5.14646 8.13646C5.32412 8.13646 5.55888 8.17453 5.6731 8.22529C5.78731 8.27605 6.98652 9.43085 8.41416 10.8648C9.81007 12.2671 11.0283 13.4536 11.1235 13.5044C11.5803 13.7455 12.0626 13.46 12.0626 12.9524V12.6795L8.0398 8.64407C4.37871 4.98298 4.01069 4.58958 3.9409 4.32944C3.79496 3.79011 3.998 3.27616 4.47388 2.94622C4.72768 2.78125 4.84189 2.74318 5.12108 2.74318C5.31143 2.74318 5.55888 2.78125 5.6731 2.83201Z" fill="url(#paint0_linear_59_171852)"/>
<defs>
<linearGradient id="paint0_linear_59_171852" x1="9.40909" y1="24.7224" x2="9.40909" y2="0.722412" gradientUnits="userSpaceOnUse">
<stop offset="1" stop-color="#DD506C"/>
</linearGradient>
</defs>
</svg>
