<svg width="24" height="24" viewBox="0 0 24 24" fill="none" xmlns="http://www.w3.org/2000/svg">
<path d="M12 16.7687C12.34 16.7687 12.6252 16.6448 12.8556 16.3972C13.086 16.1495 13.2008 15.8434 13.2 15.4788C13.1992 15.1141 13.084 14.808 12.8544 14.5604C12.6248 14.3127 12.34 14.1889 12 14.1889C11.66 14.1889 11.3752 14.3127 11.1456 14.5604C10.916 14.808 10.8008 15.1141 10.8 15.4788C10.7992 15.8434 10.9144 16.1499 11.1456 16.3985C11.3768 16.647 11.6616 16.7704 12 16.7687ZM12 11.6091C12.34 11.6091 12.6252 11.4852 12.8556 11.2376C13.086 10.9899 13.2008 10.6838 13.2 10.3192V5.15959C13.2 4.79412 13.0848 4.48798 12.8544 4.24118C12.624 3.99438 12.3392 3.87055 12 3.86969C11.6608 3.86883 11.376 3.99266 11.1456 4.24118C10.9152 4.4897 10.8 4.79584 10.8 5.15959V10.3192C10.8 10.6846 10.9152 10.9912 11.1456 11.2389C11.376 11.4865 11.6608 11.6099 12 11.6091ZM4.8 20.6383L2.04 23.6051C1.66 24.0136 1.2248 24.1052 0.734402 23.8799C0.244002 23.6546 -0.000798045 23.2512 1.9544e-06 22.6699V2.57979C1.9544e-06 1.87035 0.235202 1.26324 0.705602 0.758459C1.176 0.25368 1.7408 0.000859931 2.4 0H21.6C22.26 0 22.8252 0.25282 23.2956 0.758459C23.766 1.2641 24.0008 1.87121 24 2.57979V18.0586C24 18.768 23.7652 19.3755 23.2956 19.8812C22.826 20.3868 22.2608 20.6392 21.6 20.6383H4.8ZM3.78 18.0586H21.6V2.57979H2.4V19.5097L3.78 18.0586Z" fill="#DD506C"/>
</svg>
