<svg width="29" height="24" viewBox="0 0 29 24" fill="none" xmlns="http://www.w3.org/2000/svg">
<path d="M3.13636 15.5516V15.2371L2.85294 15.1009C1.53285 14.4665 0.597844 13.1407 0.507226 11.5831C0.96771 11.7456 1.46254 11.834 1.97727 11.834C3.52406 11.834 4.88405 11.0377 5.68162 9.834H23.3183C24.116 11.0377 25.4759 11.834 27.0227 11.834C27.5374 11.834 28.0323 11.7456 28.4928 11.5831C28.4022 13.1407 27.4672 14.4665 26.1471 15.1009L25.8636 15.2371V15.5516V23.5H18.9545V21.3333C18.9545 18.8534 16.9656 16.8333 14.5 16.8333C12.0345 16.8333 10.0455 18.8534 10.0455 21.3333V23.5H3.13636V15.5516ZM3.29545 4.5C5.69622 4.5 7.74679 2.81911 8.2772 0.5H20.7228C21.2532 2.81912 23.3039 4.5 25.7045 4.5C25.9278 4.5 26.1505 4.48523 26.3712 4.4559C25.8828 6.23073 24.2771 7.5 22.4091 7.5H6.59091C4.72296 7.5 3.1172 6.23072 2.62883 4.45591C2.84956 4.48523 3.07224 4.5 3.29545 4.5Z" stroke="#7A7A7A"/>
</svg>
