<svg width="29" height="24" viewBox="0 0 29 24" fill="none" xmlns="http://www.w3.org/2000/svg">
<path d="M7.86177 0H21.1382C21.4658 2.296 23.4112 4 25.7045 4C26.1424 4 26.578 3.93695 26.9983 3.81275C26.7554 6.19181 24.7736 8 22.4091 8H6.59091C4.22638 8 2.2446 6.19181 2.00169 3.81276C2.42197 3.93695 2.85759 4 3.29545 4C5.58889 4 7.53413 2.296 7.86177 0ZM28.9718 10.8152C28.3965 11.1455 27.7314 11.334 27.0227 11.334C25.559 11.334 24.281 10.5296 23.5972 9.334H5.40277C4.71901 10.5296 3.44101 11.334 1.97727 11.334C1.26858 11.334 0.603437 11.1455 0.0281827 10.8152C0.00955675 10.9855 0 11.1587 0 11.334C0 13.1956 1.07765 14.8025 2.63636 15.5516V24H10.5455V21.3333C10.5455 19.1241 12.316 17.3333 14.5 17.3333C16.6841 17.3333 18.4545 19.1241 18.4545 21.3333V24H26.3636V15.5516C27.9224 14.8025 29 13.1956 29 11.334C29 11.1587 28.9904 10.9855 28.9718 10.8152Z" fill="#DD506C"/>
</svg>
