<svg width="461" height="74" viewBox="0 0 461 74" fill="none" xmlns="http://www.w3.org/2000/svg">
<path d="M87.0692 69.52C82.0692 66.95 78.1692 63.38 75.3492 58.81C72.5292 54.24 71.1191 49.07 71.1191 43.29C71.1191 37.51 72.5292 32.44 75.3492 27.87C78.1692 23.3 82.0591 19.75 87.0191 17.22C91.9791 14.69 97.5992 13.42 103.879 13.42C110.159 13.42 115.799 14.69 120.799 17.22C125.799 19.75 129.689 23.29 132.469 27.82C135.249 32.35 136.639 37.51 136.639 43.29C136.639 49.07 135.249 54.25 132.469 58.81C129.689 63.38 125.799 66.95 120.799 69.52C115.799 72.09 110.159 73.37 103.879 73.37C97.5992 73.37 92.0692 72.09 87.0692 69.52ZM112.659 53.51C114.939 51.05 116.089 47.64 116.089 43.29C116.089 38.94 114.949 35.65 112.659 33.23C110.379 30.8 107.449 29.59 103.879 29.59C100.309 29.59 97.3792 30.8 95.0992 33.23C92.8192 35.66 91.6692 39.01 91.6692 43.29C91.6692 47.57 92.8092 51.05 95.0992 53.51C97.3792 55.97 100.309 57.2 103.879 57.2C107.449 57.2 110.369 55.97 112.659 53.51Z" fill="url(#paint0_linear_90_21953)"/>
<path d="M198.53 20.82C202.92 25.1 205.11 31.56 205.11 40.2V73.39H184.77V43.52C184.77 35.6 181.59 31.64 175.24 31.64C171.74 31.64 168.94 32.78 166.84 35.07C164.73 37.35 163.68 40.78 163.68 45.35V73.4H143.34V15.37H162.72V21.69C165 19.33 167.72 17.53 170.86 16.28C174 15.03 177.43 14.41 181.14 14.41C188.35 14.41 194.15 16.55 198.54 20.83L198.53 20.82Z" fill="url(#paint1_linear_90_21953)"/>
<path d="M267.69 20.82C272.08 25.1 274.27 31.56 274.27 40.2V73.39H253.93V43.52C253.93 35.6 250.75 31.64 244.4 31.64C240.9 31.64 238.1 32.78 236 35.07C233.89 37.35 232.84 40.78 232.84 45.35V73.4H212.5V15.37H231.88V21.69C234.16 19.33 236.88 17.53 240.02 16.28C243.16 15.03 246.59 14.41 250.3 14.41C257.51 14.41 263.31 16.55 267.7 20.83L267.69 20.82Z" fill="url(#paint2_linear_90_21953)"/>
<path d="M342.95 48.5499H300.77C301.63 51.5499 303.29 53.85 305.75 55.46C308.21 57.07 311.3 57.87 315.01 57.87C317.79 57.87 320.2 57.4799 322.24 56.6899C324.27 55.9099 326.33 54.6199 328.4 52.8399L339.11 63.9699C333.47 70.2499 325.23 73.3899 314.38 73.3899C307.6 73.3899 301.64 72.11 296.5 69.54C291.36 66.97 287.38 63.3999 284.56 58.8299C281.74 54.2599 280.33 49.0899 280.33 43.3099C280.33 37.5299 281.7 32.48 284.45 27.95C287.2 23.42 291 19.8699 295.85 17.2999C300.7 14.7299 306.16 13.45 312.23 13.45C318.3 13.45 323.26 14.6499 327.97 17.0399C332.68 19.4299 336.41 22.8899 339.16 27.4299C341.91 31.9599 343.28 37.33 343.28 43.54C343.28 43.68 343.17 45.36 342.96 48.57L342.95 48.5499ZM304.46 30.5599C302.35 32.3399 301.02 34.7699 300.44 37.8399H324.21C323.64 34.7699 322.3 32.3399 320.2 30.5599C318.09 28.7799 315.47 27.88 312.33 27.88C309.19 27.88 306.57 28.7699 304.46 30.5599Z" fill="url(#paint3_linear_90_21953)"/>
<path d="M365.339 69.5399C360.269 66.9699 356.329 63.3999 353.509 58.8299C350.689 54.2599 349.279 49.0899 349.279 43.3099C349.279 37.5299 350.689 32.3699 353.509 27.8399C356.329 23.3099 360.269 19.7699 365.339 17.2399C370.409 14.7099 376.149 13.4399 382.579 13.4399C389.009 13.4399 394.819 14.8499 399.599 17.6699C404.379 20.4899 407.769 24.3999 409.769 29.3899L394.029 37.4199C391.389 32.2099 387.529 29.5999 382.469 29.5999C378.829 29.5999 375.809 30.8099 373.419 33.2399C371.029 35.6699 369.829 39.0199 369.829 43.2999C369.829 47.5799 371.019 51.0599 373.419 53.5199C375.809 55.9799 378.829 57.2099 382.469 57.2099C387.539 57.2099 391.389 54.6099 394.029 49.3899L409.769 57.4199C407.769 62.4199 404.379 66.3199 399.599 69.1399C394.819 71.9599 389.139 73.3699 382.579 73.3699C376.019 73.3699 370.409 72.0899 365.339 69.5199V69.5399Z" fill="url(#paint4_linear_90_21953)"/>
<path d="M460.999 70.07C459.289 71.14 457.199 71.96 454.739 72.53C452.279 73.1 449.649 73.39 446.869 73.39C439.299 73.39 433.489 71.53 429.419 67.82C425.349 64.11 423.319 58.58 423.319 51.23V31.74H414.859V16.54H423.319V0H443.659V16.54H456.939V31.74H443.659V51.01C443.659 53.08 444.209 54.7 445.319 55.88C446.429 57.06 447.909 57.65 449.759 57.65C452.119 57.65 454.189 57.04 455.969 55.83L460.999 70.07Z" fill="url(#paint5_linear_90_21953)"/>
<path d="M21.59 0.469971H0V17.51H4.56C13.97 17.51 21.6 9.87997 21.6 0.469971H21.59Z" fill="url(#paint6_linear_90_21953)"/>
<path d="M68.8499 73.39H47.2498C47.2498 59.24 35.7398 47.73 21.5898 47.73V26.13C47.6498 26.13 68.8499 47.33 68.8499 73.39Z" fill="url(#paint7_linear_90_21953)"/>
<path d="M68.84 0.469971H47.24C47.24 14.61 35.74 26.12 21.59 26.13V26.11H0V73.39H21.59V47.73C47.64 47.73 68.84 26.52 68.84 0.469971Z" fill="url(#paint8_linear_90_21953)"/>
<defs>
<linearGradient id="paint0_linear_90_21953" x1="104.207" y1="13.42" x2="104.207" y2="73.37" gradientUnits="userSpaceOnUse">
<stop stop-color="#FF6B6B"/>
<stop offset="0.55" stop-color="#DD506C"/>
</linearGradient>
<linearGradient id="paint1_linear_90_21953" x1="174.534" y1="14.41" x2="174.534" y2="73.4" gradientUnits="userSpaceOnUse">
<stop stop-color="#FF6B6B"/>
<stop offset="0.55" stop-color="#DD506C"/>
</linearGradient>
<linearGradient id="paint2_linear_90_21953" x1="243.694" y1="14.41" x2="243.694" y2="73.4" gradientUnits="userSpaceOnUse">
<stop stop-color="#FF6B6B"/>
<stop offset="0.55" stop-color="#DD506C"/>
</linearGradient>
<linearGradient id="paint3_linear_90_21953" x1="312.12" y1="13.45" x2="312.12" y2="73.3899" gradientUnits="userSpaceOnUse">
<stop stop-color="#FF6B6B"/>
<stop offset="0.55" stop-color="#DD506C"/>
</linearGradient>
<linearGradient id="paint4_linear_90_21953" x1="379.827" y1="13.4399" x2="379.827" y2="73.3699" gradientUnits="userSpaceOnUse">
<stop stop-color="#FF6B6B"/>
<stop offset="0.55" stop-color="#DD506C"/>
</linearGradient>
<linearGradient id="paint5_linear_90_21953" x1="438.16" y1="-2.15986e-08" x2="438.16" y2="73.39" gradientUnits="userSpaceOnUse">
<stop stop-color="#FF6B6B"/>
<stop offset="0.55" stop-color="#DD506C"/>
</linearGradient>
<linearGradient id="paint6_linear_90_21953" x1="10.908" y1="0.469971" x2="10.908" y2="17.51" gradientUnits="userSpaceOnUse">
<stop stop-color="#FF6B6B"/>
<stop offset="0.55" stop-color="#DD506C"/>
</linearGradient>
<linearGradient id="paint7_linear_90_21953" x1="45.4561" y1="26.13" x2="45.4561" y2="73.39" gradientUnits="userSpaceOnUse">
<stop stop-color="#FF6B6B"/>
<stop offset="0.55" stop-color="#DD506C"/>
</linearGradient>
<linearGradient id="paint8_linear_90_21953" x1="34.7642" y1="0.469971" x2="34.7642" y2="73.39" gradientUnits="userSpaceOnUse">
<stop stop-color="#FF6B6B"/>
<stop offset="0.55" stop-color="#DD506C"/>
</linearGradient>
</defs>
</svg>
