<svg width="26" height="26" viewBox="0 0 26 26" fill="none" xmlns="http://www.w3.org/2000/svg">
<path d="M13 25C19.6274 25 25 19.6274 25 13C25 6.37258 19.6274 1 13 1M13 25C6.37258 25 1 19.6274 1 13C1 6.37258 6.37258 1 13 1M13 25C15.7904 25 18.0526 19.6274 18.0526 13C18.0526 6.37258 15.7904 1 13 1M13 25C10.2095 25 7.94737 19.6274 7.94737 13C7.94737 6.37258 10.2095 1 13 1M1.63158 9.21053H24.3684ZM1.63158 16.7895H24.3684Z" fill="#DD506C"/>
<path d="M13 25C19.6274 25 25 19.6274 25 13C25 6.37258 19.6274 1 13 1M13 25C6.37258 25 1 19.6274 1 13C1 6.37258 6.37258 1 13 1M13 25C15.7904 25 18.0526 19.6274 18.0526 13C18.0526 6.37258 15.7904 1 13 1M13 25C10.2095 25 7.94737 19.6274 7.94737 13C7.94737 6.37258 10.2095 1 13 1M1.63158 9.21053H24.3684M1.63158 16.7895H24.3684" stroke="white" stroke-linecap="round"/>
</svg>
