<svg width="24" height="24" viewBox="0 0 24 24" fill="none" xmlns="http://www.w3.org/2000/svg">
<path d="M1.875 0.0608877C1.64531 0.135888 1.29844 0.496825 1.22813 0.7312C1.2 0.839013 1.17188 1.0312 1.17188 1.16245C1.17188 1.40151 1.17188 1.40151 0.989063 1.45308C0.61875 1.55151 0.61875 2.01089 0.989063 2.10933C1.15781 2.1562 1.17188 2.17495 1.17188 2.32026C1.17188 2.48433 1.17188 2.48433 0.951563 2.48901C0.576563 2.4937 0.309375 2.51245 0.20625 2.54995C0.0140625 2.61089 0 2.73745 0 4.44839C0 6.02808 0.0046875 6.08433 0.0984375 6.2062C0.229688 6.37495 0.473438 6.37495 0.604688 6.2062C0.698438 6.08433 0.703125 6.02808 0.703125 4.65933V3.23433H2.22656H3.75V12V20.7656H2.22656H0.703125V14.0906V7.42026L0.604688 7.2937C0.473438 7.12495 0.229688 7.12495 0.0984375 7.2937L0 7.42026V14.3015C0 19.4203 0.0140625 21.2156 0.05625 21.3C0.121875 21.4546 0.3375 21.5156 0.810938 21.5156H1.17188V21.6796C1.17188 21.825 1.15781 21.8437 0.989063 21.8906C0.61875 21.989 0.61875 22.4484 0.989063 22.5468C1.17188 22.5984 1.17188 22.5984 1.17188 22.8375C1.17188 23.2031 1.26094 23.4375 1.5 23.6718C1.93594 24.1078 2.51719 24.1078 2.95313 23.6718C3.19219 23.4375 3.28125 23.2031 3.28125 22.8375C3.28125 22.5984 3.28125 22.5984 3.46406 22.5468C3.69375 22.4859 3.79219 22.2937 3.70313 22.0781C3.66094 21.975 3.6 21.9234 3.46406 21.8906C3.29531 21.8437 3.28125 21.825 3.28125 21.6796V21.5156H3.64688C4.11563 21.5156 4.33125 21.4546 4.39688 21.3C4.42969 21.239 4.45313 20.9953 4.45313 20.7656V20.3437L5.19375 20.339C5.63438 20.339 5.99531 20.3156 6.09375 20.2828C6.27656 20.2171 6.36094 20.0578 6.30938 19.8562C6.25781 19.6406 6.05625 19.5937 5.20313 19.5937H4.45313V12V4.4062H12H19.5469V12V19.5937L13.4484 19.6031L7.35 19.6171L7.23281 19.7531C7.10156 19.9078 7.11563 20.0671 7.27031 20.2265C7.35938 20.3203 7.43438 20.3203 13.4531 20.3343L19.5469 20.3437V20.7656C19.5469 20.9953 19.5703 21.239 19.6031 21.3C19.6688 21.4546 19.8844 21.5156 20.3578 21.5156H20.7188V21.6796C20.7188 21.825 20.7047 21.8437 20.5359 21.8906C20.1656 21.989 20.1656 22.4484 20.5359 22.5468C20.7188 22.5984 20.7188 22.5984 20.7188 22.8375C20.7188 23.2031 20.8078 23.4375 21.0469 23.6718C21.4828 24.1078 22.0641 24.1078 22.5 23.6718C22.7391 23.4375 22.8281 23.2031 22.8281 22.8375C22.8281 22.5984 22.8281 22.5984 23.0109 22.5468C23.3813 22.4484 23.3813 21.989 23.0109 21.8906C22.8422 21.8437 22.8281 21.825 22.8281 21.6796V21.5156H23.1938C23.6625 21.5156 23.8781 21.4546 23.9438 21.3C23.9813 21.2203 24 20.6859 24 19.5421V17.9015L23.8828 17.789C23.7375 17.639 23.5594 17.639 23.4141 17.789L23.2969 17.9015V19.3359V20.7656H21.7734H20.25V12V3.23433H21.7734H23.2969V9.90933V16.5796L23.3953 16.7062C23.4656 16.7953 23.5359 16.8281 23.6484 16.8281C23.7609 16.8281 23.8313 16.7953 23.9016 16.7062L24 16.5796V9.69839C24 4.60776 23.9859 2.78433 23.9438 2.69995C23.8688 2.5312 23.7234 2.49839 23.0531 2.48901C22.8281 2.48433 22.8281 2.48433 22.8281 2.32026C22.8281 2.17495 22.8422 2.1562 23.0109 2.10933C23.2406 2.04839 23.3391 1.8562 23.25 1.64058C23.2078 1.53745 23.1469 1.48589 23.0109 1.45308C22.8281 1.40151 22.8281 1.40151 22.8281 1.16245C22.8281 0.796825 22.7391 0.56245 22.5 0.328075C22.2891 0.11245 22.0359 -4.97818e-05 21.7734 -4.97818e-05C21.5109 -4.97818e-05 21.2578 0.11245 21.0469 0.328075C20.8078 0.56245 20.7188 0.796825 20.7188 1.16245C20.7188 1.40151 20.7188 1.40151 20.5359 1.45308C20.4 1.48589 20.3391 1.53745 20.2969 1.64058C20.2078 1.8562 20.3063 2.04839 20.5359 2.10933C20.7047 2.1562 20.7188 2.17495 20.7188 2.32026V2.48433H20.3578C19.8844 2.48433 19.6688 2.54526 19.6031 2.69995C19.5703 2.76089 19.5469 3.00464 19.5469 3.23433V3.6562H12H4.45313V3.23433C4.45313 3.00464 4.42969 2.76089 4.39688 2.69995C4.33125 2.54526 4.11563 2.48433 3.64688 2.48433H3.28125V2.32026C3.28125 2.17495 3.29531 2.1562 3.46406 2.10933C3.83438 2.01089 3.83438 1.55151 3.46406 1.45308C3.28125 1.40151 3.28125 1.40151 3.28125 1.16245C3.28125 0.796825 3.19219 0.56245 2.95313 0.328075C2.64844 0.0233877 2.28281 -0.0656748 1.875 0.0608877Z" fill="#7A7A7A"/>
</svg>
