<svg width="84" height="73" viewBox="0 0 84 73" fill="none" xmlns="http://www.w3.org/2000/svg">
<path d="M69.7054 47.3777C61.5054 56.5577 51.6754 65.3677 41.8454 72.9277C41.7454 72.8177 41.6454 72.7077 41.5354 72.5877C51.6554 61.3577 92.5254 24.3377 68.1654 10.2077C63.2154 7.33772 52.8854 8.56772 48.1854 11.7977C48.0654 11.8877 47.9354 11.9677 47.8154 12.0577C45.9654 13.4077 44.4854 15.0677 43.3154 16.7877C40.1754 21.4077 42.5754 28.3677 42.9154 29.2977H42.9054C41.9954 29.4377 41.0654 29.4377 40.1554 29.2977C40.1554 29.2977 40.1454 29.2977 40.1354 29.2977C38.1154 29.0077 36.0754 28.2577 35.0254 27.1077C33.9454 25.9177 33.2154 24.4777 33.0054 22.9277C32.4354 18.7677 33.3754 15.1277 35.2354 12.0577C36.7954 9.50772 38.9954 7.34772 41.5254 5.61772C59.8254 -6.22228 81.3054 2.54772 83.1454 20.6877C84.6054 30.9077 76.2854 40.0477 69.6854 47.3877L69.7054 47.3777Z" fill="url(#paint0_linear_90_22260)"/>
<path d="M47.8243 12.0476C49.6943 15.1176 50.6243 18.7577 50.0543 22.9177C49.8443 24.4677 49.1143 25.9177 48.0343 27.0977C46.9843 28.2477 44.9443 28.9876 42.9243 29.2876C42.5843 28.3576 40.1743 21.3977 43.3243 16.7677C44.4943 15.0477 45.9743 13.3876 47.8243 12.0376V12.0476ZM7.51433 15.9177C15.4443 3.25765 29.5543 5.14765 35.2443 12.0476C36.7943 9.49765 39.0043 7.33765 41.5343 5.59765C25.4243 -4.99235 7.99433 0.617652 2.27433 12.6377C-1.97567 21.5677 -0.265674 33.1676 7.37433 42.0976C19.5043 56.2976 24.0943 59.1276 24.0943 59.1276C24.0943 59.1276 -2.38567 31.7377 7.52433 15.9177H7.51433Z" fill="url(#paint1_linear_90_22260)"/>
<path d="M32.0754 64.7276L28.2454 62.1576C28.0654 62.0576 27.9554 61.8676 27.9554 61.6576L27.8954 58.6376C27.8954 58.4276 27.6254 58.3476 27.5054 58.5176L26.4354 60.0176C26.3154 60.1876 26.1054 60.2676 25.8954 60.2176L24.9154 59.9776L25.2054 60.9376C25.2654 61.1376 25.2054 61.3576 25.0354 61.4876L23.5954 62.6376C23.4354 62.7676 23.5254 63.0276 23.7354 63.0176L26.7554 62.9076C26.9554 62.9076 27.1554 62.9976 27.2654 63.1676L30.0454 66.8476C30.2654 67.1676 30.1854 67.6076 29.8654 67.8376L25.5154 71.0176C25.2754 71.1876 25.4354 71.5676 25.7254 71.5076L32.9154 69.9776C33.1954 69.9276 33.4854 70.0076 33.6954 70.1976L35.9454 72.5776C36.0154 72.6376 36.1054 72.6876 36.2054 72.6876L38.2754 72.8976C38.4554 72.9176 38.6054 72.7576 38.5754 72.5776L38.2454 70.5176C38.2254 70.4176 38.1854 70.3376 38.1154 70.2676L35.7854 67.9676C35.5854 67.7676 35.3054 67.6776 35.3454 67.3976L36.4654 60.1276C36.5054 59.8376 36.1254 59.6976 35.9654 59.9476L33.0354 64.4676C32.8254 64.7976 32.3954 64.8976 32.0554 64.6976L32.0754 64.7276Z" fill="#DD506C"/>
<defs>
<linearGradient id="paint0_linear_90_22260" x1="42.7654" y1="10.6777" x2="70.3054" y2="58.4177" gradientUnits="userSpaceOnUse">
<stop stop-color="#DD506C"/>
<stop offset="0.62" stop-color="#DD506C"/>
<stop offset="1" stop-color="#FAFFDB"/>
</linearGradient>
<linearGradient id="paint1_linear_90_22260" x1="0.984327" y1="32.7876" x2="48.7243" y2="25.8076" gradientUnits="userSpaceOnUse">
<stop offset="0.17" stop-color="#DD506C"/>
<stop offset="0.52" stop-color="#DD506C"/>
<stop offset="1" stop-color="#FFEFBA"/>
</linearGradient>
</defs>
</svg>
